<?xml version="1.0" encoding="utf-8"?>
<svg viewBox="0 -0.579 899.884 138.889" width="899.884" height="138.889" xmlns="http://www.w3.org/2000/svg">
  <path d="M -0.347 134.997 L 21.153 130.522 C 42.653 126.045 85.653 117.093 128.453 108.34 C 171.353 99.487 213.953 90.932 256.853 88.943 C 299.653 86.954 342.653 91.53 385.453 91.032 C 428.353 90.534 470.953 84.965 513.853 85.561 C 556.653 86.257 599.653 93.22 642.453 97.995 C 685.353 102.869 727.953 105.455 770.853 106.947 C 813.653 108.439 856.653 108.836 878.153 108.936 L 899.653 109.136 L 899.653 -2.27 L 878.153 -2.27 C 856.653 -2.27 813.653 -2.27 770.853 -2.27 C 727.953 -2.27 685.353 -2.27 642.453 -2.27 C 599.653 -2.27 556.653 -2.27 513.853 -2.27 C 470.953 -2.27 428.353 -2.27 385.453 -2.27 C 342.653 -2.27 299.653 -2.27 256.853 -2.27 C 213.953 -2.27 171.353 -2.27 128.453 -2.27 C 85.653 -2.27 42.653 -2.27 21.153 -2.27 L -0.347 -2.27 L -0.347 134.997 Z" fill="#1f1f1f" style="" transform="matrix(1, 0, 0, 1, -2.842170943040401e-14, -2.842170943040401e-14)"/>
  <path d="M -0.347 76.31 L 21.153 74.322 C 42.653 72.332 85.653 68.353 128.453 66.662 C 171.353 65.071 213.953 65.667 256.853 71.536 C 299.653 77.305 342.653 88.247 385.453 91.43 C 428.353 94.514 470.953 89.938 513.853 86.059 C 556.653 82.279 599.653 79.295 642.453 74.818 C 685.353 70.342 727.953 64.375 770.853 66.165 C 813.653 68.055 856.653 77.604 878.153 82.477 L 899.653 87.252 L 899.653 -2.27 L 878.153 -2.27 C 856.653 -2.27 813.653 -2.27 770.853 -2.27 C 727.953 -2.27 685.353 -2.27 642.453 -2.27 C 599.653 -2.27 556.653 -2.27 513.853 -2.27 C 470.953 -2.27 428.353 -2.27 385.453 -2.27 C 342.653 -2.27 299.653 -2.27 256.853 -2.27 C 213.953 -2.27 171.353 -2.27 128.453 -2.27 C 85.653 -2.27 42.653 -2.27 21.153 -2.27 L -0.347 -2.27 L -0.347 76.31 Z" fill="#2e2e2e" style="" transform="matrix(1, 0, 0, 1, -2.842170943040401e-14, -2.842170943040401e-14)"/>
  <path d="M -0.347 34.534 L 21.153 37.816 C 42.653 41.198 85.653 47.763 128.453 47.961 C 171.353 48.161 213.953 41.795 256.853 38.314 C 299.653 34.832 342.653 34.235 385.453 35.329 C 428.353 36.522 470.953 39.507 513.853 43.784 C 556.653 48.161 599.653 53.73 642.453 56.416 C 685.353 59.102 727.953 58.704 770.853 57.113 C 813.653 55.422 856.653 52.438 878.153 50.946 L 899.653 49.454 L 899.653 -2.27 L 878.153 -2.27 C 856.653 -2.27 813.653 -2.27 770.853 -2.27 C 727.953 -2.27 685.353 -2.27 642.453 -2.27 C 599.653 -2.27 556.653 -2.27 513.853 -2.27 C 470.953 -2.27 428.353 -2.27 385.453 -2.27 C 342.653 -2.27 299.653 -2.27 256.853 -2.27 C 213.953 -2.27 171.353 -2.27 128.453 -2.27 C 85.653 -2.27 42.653 -2.27 21.153 -2.27 L -0.347 -2.27 L -0.347 34.534 Z" fill="#3e3e3e" style="" transform="matrix(1, 0, 0, 1, -2.842170943040401e-14, -2.842170943040401e-14)"/>
</svg>