<?xml version="1.0" encoding="utf-8"?>
<svg viewBox="0 -0.579 899.884 138.889" width="899.884" height="138.889" xmlns="http://www.w3.org/2000/svg">
  <path d="M -0.347 0.444 L 21.153 4.944 C 42.653 9.444 85.653 18.444 128.453 27.244 C 171.353 36.144 213.953 44.744 256.853 46.744 C 299.653 48.744 342.653 44.144 385.453 44.644 C 428.353 45.144 470.953 50.744 513.853 50.144 C 556.653 49.444 599.653 42.444 642.453 37.644 C 685.353 32.744 727.953 30.144 770.853 28.644 C 813.653 27.144 856.653 26.744 878.153 26.644 L 899.653 26.444 L 899.653 138.444 L 878.153 138.444 C 856.653 138.444 813.653 138.444 770.853 138.444 C 727.953 138.444 685.353 138.444 642.453 138.444 C 599.653 138.444 556.653 138.444 513.853 138.444 C 470.953 138.444 428.353 138.444 385.453 138.444 C 342.653 138.444 299.653 138.444 256.853 138.444 C 213.953 138.444 171.353 138.444 128.453 138.444 C 85.653 138.444 42.653 138.444 21.153 138.444 L -0.347 138.444 L -0.347 0.444 Z" fill="#1f1f1f" transform="matrix(1, 0, 0, 1, 0, 2.842170943040401e-14)"/>
  <path d="M -0.347 59.444 L 21.153 61.444 C 42.653 63.444 85.653 67.444 128.453 69.144 C 171.353 70.744 213.953 70.144 256.853 64.244 C 299.653 58.444 342.653 47.444 385.453 44.244 C 428.353 41.144 470.953 45.744 513.853 49.644 C 556.653 53.444 599.653 56.444 642.453 60.944 C 685.353 65.444 727.953 71.444 770.853 69.644 C 813.653 67.744 856.653 58.144 878.153 53.244 L 899.653 48.444 L 899.653 138.444 L 878.153 138.444 C 856.653 138.444 813.653 138.444 770.853 138.444 C 727.953 138.444 685.353 138.444 642.453 138.444 C 599.653 138.444 556.653 138.444 513.853 138.444 C 470.953 138.444 428.353 138.444 385.453 138.444 C 342.653 138.444 299.653 138.444 256.853 138.444 C 213.953 138.444 171.353 138.444 128.453 138.444 C 85.653 138.444 42.653 138.444 21.153 138.444 L -0.347 138.444 L -0.347 59.444 Z" fill="#2e2e2e" transform="matrix(1, 0, 0, 1, 0, 2.842170943040401e-14)"/>
  <path d="M -0.347 101.444 L 21.153 98.144 C 42.653 94.744 85.653 88.144 128.453 87.944 C 171.353 87.744 213.953 94.144 256.853 97.644 C 299.653 101.144 342.653 101.744 385.453 100.644 C 428.353 99.444 470.953 96.444 513.853 92.144 C 556.653 87.744 599.653 82.144 642.453 79.444 C 685.353 76.744 727.953 77.144 770.853 78.744 C 813.653 80.444 856.653 83.444 878.153 84.944 L 899.653 86.444 L 899.653 138.444 L 878.153 138.444 C 856.653 138.444 813.653 138.444 770.853 138.444 C 727.953 138.444 685.353 138.444 642.453 138.444 C 599.653 138.444 556.653 138.444 513.853 138.444 C 470.953 138.444 428.353 138.444 385.453 138.444 C 342.653 138.444 299.653 138.444 256.853 138.444 C 213.953 138.444 171.353 138.444 128.453 138.444 C 85.653 138.444 42.653 138.444 21.153 138.444 L -0.347 138.444 L -0.347 101.444 Z" fill="#3e3e3e" transform="matrix(1, 0, 0, 1, 0, 2.842170943040401e-14)"/>
</svg>